<svg width="732" height="237" viewBox="0 0 732 237" fill="#000" xmlns="http://www.w3.org/2000/svg">
<path d="M731.009 136.1C731.209 136.1 731.309 136.4 731.309 137C731.309 137.6 731.209 137.9 731.009 137.9C728.009 137.9 725.409 139.1 723.209 141.5C721.109 143.9 719.159 147.55 717.359 152.45L700.109 198.2C696.509 207.8 693.059 215.35 689.759 220.85C686.459 226.35 683.109 230.25 679.709 232.55C676.309 234.95 672.559 236.15 668.459 236.15C665.659 236.15 663.509 235.55 662.009 234.35C660.409 233.25 659.609 231.55 659.609 229.25C659.609 227.25 660.259 225.7 661.559 224.6C662.759 223.6 664.259 223.1 666.059 223.1C667.259 223.1 668.259 223.25 669.059 223.55C669.959 223.95 670.859 224.45 671.759 225.05C672.759 225.65 673.609 226.1 674.309 226.4C675.109 226.7 676.059 226.85 677.159 226.85C679.459 226.85 681.559 225.9 683.459 224C685.459 222.2 687.509 219.15 689.609 214.85C691.809 210.55 694.409 204.45 697.409 196.55L673.709 148.55C671.509 144.25 669.759 141.4 668.459 140C667.259 138.6 665.759 137.9 663.959 137.9C663.659 137.9 663.509 137.6 663.509 137C663.509 136.4 663.659 136.1 663.959 136.1C666.559 136.1 668.559 136.15 669.959 136.25L675.809 136.4L686.009 136.25C687.509 136.15 689.559 136.1 692.159 136.1C692.459 136.1 692.609 136.4 692.609 137C692.609 137.6 692.459 137.9 692.159 137.9C689.459 137.9 687.459 138.15 686.159 138.65C684.959 139.05 684.359 139.85 684.359 141.05C684.359 141.95 684.609 142.85 685.109 143.75L703.409 181.55L713.459 152.45C714.359 149.85 714.809 147.65 714.809 145.85C714.809 140.55 711.459 137.9 704.759 137.9C704.559 137.9 704.459 137.6 704.459 137C704.459 136.4 704.559 136.1 704.759 136.1C707.459 136.1 709.509 136.15 710.909 136.25L719.909 136.4L725.759 136.25C726.859 136.15 728.609 136.1 731.009 136.1Z"/>
<path d="M665.797 184.7C666.097 184.7 666.347 184.95 666.547 185.45C666.847 185.95 666.847 186.25 666.547 186.35L647.347 195.65L646.447 195.8C645.447 195.8 644.497 194.8 643.597 192.8C642.797 190.8 642.347 188.1 642.247 184.7C638.647 188.1 634.947 190.85 631.147 192.95C627.347 194.95 623.197 195.95 618.697 195.95C614.397 195.95 610.447 194.8 606.847 192.5C603.247 190.1 600.397 186.7 598.297 182.3C596.197 177.9 595.147 172.75 595.147 166.85C595.147 159.45 596.897 153.3 600.397 148.4C603.897 143.5 608.297 139.9 613.597 137.6C618.897 135.3 624.197 134.15 629.497 134.15C633.897 134.15 638.097 134.95 642.097 136.55V105.2C642.097 101.7 641.747 99.2 641.047 97.7C640.447 96.1 639.297 95.3 637.597 95.3C636.497 95.3 634.497 95.9 631.597 97.1H631.297C630.897 97.1 630.597 96.85 630.397 96.35C630.197 95.85 630.197 95.55 630.397 95.45L651.547 85.4L652.147 85.25C652.547 85.25 652.997 85.45 653.497 85.85C653.997 86.25 654.247 86.6 654.247 86.9V176.9C654.247 180.4 654.597 182.9 655.297 184.4C655.997 185.8 657.197 186.5 658.897 186.5C660.897 186.5 663.147 185.9 665.647 184.7H665.797ZM626.197 189.35C629.097 189.35 631.797 188.7 634.297 187.4C636.897 186.1 639.497 184.25 642.097 181.85V181.7V146C640.097 143.2 637.847 141.15 635.347 139.85C632.947 138.45 630.047 137.75 626.647 137.75C620.947 137.75 616.497 139.75 613.297 143.75C610.197 147.75 608.647 153.9 608.647 162.2C608.647 170.6 610.297 177.25 613.597 182.15C616.897 186.95 621.097 189.35 626.197 189.35Z"/>
<path d="M593.051 184.55C593.351 184.55 593.601 184.8 593.801 185.3C594.001 185.8 593.951 186.15 593.651 186.35L574.001 195.8L573.401 195.95C572.401 195.95 571.501 194.85 570.701 192.65C569.901 190.35 569.451 187.3 569.351 183.5C562.351 191.6 554.951 195.65 547.151 195.65C541.751 195.65 537.551 194 534.551 190.7C531.551 187.3 530.051 182.7 530.051 176.9V154.55C530.051 147.75 528.501 144.35 525.401 144.35C524.401 144.35 523.001 144.75 521.201 145.55H521.051C520.651 145.55 520.351 145.3 520.151 144.8C519.951 144.3 520.001 143.95 520.301 143.75L539.351 134.9L539.951 134.75C540.351 134.75 540.801 134.95 541.301 135.35C541.801 135.75 542.051 136.1 542.051 136.4V170.45C542.051 176.05 543.051 180.25 545.051 183.05C547.151 185.75 550.301 187.1 554.501 187.1C557.001 187.1 559.551 186.5 562.151 185.3C564.851 184.1 567.251 182.45 569.351 180.35V154.55C569.351 151.05 568.951 148.5 568.151 146.9C567.451 145.2 566.301 144.35 564.701 144.35C563.801 144.35 562.401 144.75 560.501 145.55H560.351C559.951 145.55 559.651 145.3 559.451 144.8C559.251 144.2 559.351 143.85 559.751 143.75L578.651 134.9C578.851 134.8 579.101 134.75 579.401 134.75C579.801 134.75 580.251 134.95 580.751 135.35C581.251 135.75 581.501 136.1 581.501 136.4V177.05C581.501 180.55 581.851 183 582.551 184.4C583.251 185.8 584.401 186.5 586.001 186.5C587.201 186.5 589.451 185.9 592.751 184.7L593.051 184.55Z"/>
<path d="M518.514 184.4C518.814 184.4 519.064 184.6 519.264 185C519.564 185.4 519.564 185.7 519.264 185.9C515.564 189.4 512.064 191.95 508.764 193.55C505.464 195.05 501.964 195.8 498.264 195.8C493.964 195.8 490.314 194.8 487.314 192.8C484.414 190.7 482.964 187.25 482.964 182.45V148.55C482.964 145.25 482.414 143.05 481.314 141.95C480.314 140.85 478.314 140.3 475.314 140.3C475.214 140.3 475.064 140.2 474.864 140C474.764 139.7 474.714 139.4 474.714 139.1C474.714 138.8 474.764 138.55 474.864 138.35C475.064 138.05 475.214 137.9 475.314 137.9C484.714 137.5 490.614 133.45 493.014 125.75C493.214 125.35 493.614 125.15 494.214 125.15C494.914 125.15 495.264 125.35 495.264 125.75V137.6C499.964 137.5 506.614 137 515.214 136.1C515.414 136.1 515.614 136.5 515.814 137.3C516.114 138 516.264 138.8 516.264 139.7C516.264 140.6 516.064 141.5 515.664 142.4C515.364 143.3 515.014 143.7 514.614 143.6C509.014 142.3 502.564 141.5 495.264 141.2V177.5C495.264 181.4 496.214 184.3 498.114 186.2C500.114 188 502.864 188.9 506.364 188.9C510.564 188.9 514.514 187.45 518.214 184.55L518.514 184.4Z"/>
<path d="M422.838 116.15C422.838 119.85 423.738 123.15 425.538 126.05C427.438 128.85 429.738 131.3 432.438 133.4C435.238 135.5 438.988 138 443.688 140.9C448.788 144.1 452.788 146.85 455.688 149.15C458.688 151.45 461.188 154.3 463.188 157.7C465.288 161 466.338 164.9 466.338 169.4C466.338 174.5 464.988 179.05 462.288 183.05C459.688 187.05 455.938 190.2 451.038 192.5C446.238 194.7 440.738 195.8 434.538 195.8C430.338 195.8 425.988 195.25 421.488 194.15C417.088 193.05 413.738 191.7 411.438 190.1C410.538 189.5 410.038 188.55 409.938 187.25L409.038 164.45V164.3C409.038 163.9 409.288 163.7 409.788 163.7C410.288 163.6 410.588 163.75 410.688 164.15C413.988 172.45 417.738 179.25 421.938 184.55C426.238 189.85 431.688 192.5 438.288 192.5C442.588 192.5 446.188 191.35 449.088 189.05C451.988 186.65 453.438 182.7 453.438 177.2C453.438 172.8 452.438 168.95 450.438 165.65C448.538 162.35 446.138 159.6 443.238 157.4C440.438 155.2 436.588 152.5 431.688 149.3C426.888 146.2 423.138 143.6 420.438 141.5C417.738 139.3 415.438 136.65 413.538 133.55C411.638 130.35 410.688 126.65 410.688 122.45C410.688 117.25 412.138 112.85 415.038 109.25C417.938 105.65 421.688 103 426.288 101.3C430.988 99.5 435.888 98.6 440.988 98.6C444.388 98.6 447.788 98.95 451.188 99.65C454.588 100.25 457.438 101.05 459.738 102.05C461.238 102.65 461.988 103.6 461.988 104.9L462.438 125.3C462.438 125.6 462.138 125.8 461.538 125.9C461.038 126 460.738 125.9 460.638 125.6C458.638 119.5 455.938 114 452.538 109.1C449.238 104.1 444.238 101.6 437.538 101.6C433.038 101.6 429.438 102.9 426.738 105.5C424.138 108.1 422.838 111.65 422.838 116.15Z"/>
<path d="M399.119 136.1C399.319 136.1 399.419 136.4 399.419 137C399.419 137.6 399.319 137.9 399.119 137.9C396.119 137.9 393.519 139.1 391.319 141.5C389.219 143.9 387.269 147.55 385.469 152.45L368.219 198.2C364.619 207.8 361.169 215.35 357.869 220.85C354.569 226.35 351.219 230.25 347.819 232.55C344.419 234.95 340.669 236.15 336.569 236.15C333.769 236.15 331.619 235.55 330.119 234.35C328.519 233.25 327.719 231.55 327.719 229.25C327.719 227.25 328.369 225.7 329.669 224.6C330.869 223.6 332.369 223.1 334.169 223.1C335.369 223.1 336.369 223.25 337.169 223.55C338.069 223.95 338.969 224.45 339.869 225.05C340.869 225.65 341.719 226.1 342.419 226.4C343.219 226.7 344.169 226.85 345.269 226.85C347.569 226.85 349.669 225.9 351.569 224C353.569 222.2 355.619 219.15 357.719 214.85C359.919 210.55 362.519 204.45 365.519 196.55L341.819 148.55C339.619 144.25 337.869 141.4 336.569 140C335.369 138.6 333.869 137.9 332.069 137.9C331.769 137.9 331.619 137.6 331.619 137C331.619 136.4 331.769 136.1 332.069 136.1C334.669 136.1 336.669 136.15 338.069 136.25L343.919 136.4L354.119 136.25C355.619 136.15 357.669 136.1 360.269 136.1C360.569 136.1 360.719 136.4 360.719 137C360.719 137.6 360.569 137.9 360.269 137.9C357.569 137.9 355.569 138.15 354.269 138.65C353.069 139.05 352.469 139.85 352.469 141.05C352.469 141.95 352.719 142.85 353.219 143.75L371.519 181.55L381.569 152.45C382.469 149.85 382.919 147.65 382.919 145.85C382.919 140.55 379.569 137.9 372.869 137.9C372.669 137.9 372.569 137.6 372.569 137C372.569 136.4 372.669 136.1 372.869 136.1C375.569 136.1 377.619 136.15 379.019 136.25L388.019 136.4L393.869 136.25C394.969 136.15 396.719 136.1 399.119 136.1Z"/>
<path d="M327.882 184.4C328.182 184.4 328.432 184.6 328.632 185C328.932 185.4 328.932 185.7 328.632 185.9C324.932 189.4 321.432 191.95 318.132 193.55C314.832 195.05 311.332 195.8 307.632 195.8C303.332 195.8 299.682 194.8 296.682 192.8C293.782 190.7 292.332 187.25 292.332 182.45V148.55C292.332 145.25 291.782 143.05 290.682 141.95C289.682 140.85 287.682 140.3 284.682 140.3C284.582 140.3 284.432 140.2 284.232 140C284.132 139.7 284.082 139.4 284.082 139.1C284.082 138.8 284.132 138.55 284.232 138.35C284.432 138.05 284.582 137.9 284.682 137.9C294.082 137.5 299.982 133.45 302.382 125.75C302.582 125.35 302.982 125.15 303.582 125.15C304.282 125.15 304.632 125.35 304.632 125.75V137.6C309.332 137.5 315.982 137 324.582 136.1C324.782 136.1 324.982 136.5 325.182 137.3C325.482 138 325.632 138.8 325.632 139.7C325.632 140.6 325.432 141.5 325.032 142.4C324.732 143.3 324.382 143.7 323.982 143.6C318.382 142.3 311.932 141.5 304.632 141.2V177.5C304.632 181.4 305.582 184.3 307.482 186.2C309.482 188 312.232 188.9 315.732 188.9C319.932 188.9 323.882 187.45 327.582 184.55L327.882 184.4Z"/>
<path d="M264.938 118.85C262.338 118.85 260.288 118.15 258.788 116.75C257.388 115.35 256.688 113.35 256.688 110.75C256.688 108.25 257.388 106.35 258.788 105.05C260.288 103.65 262.338 102.95 264.938 102.95C267.438 102.95 269.388 103.65 270.788 105.05C272.188 106.35 272.888 108.25 272.888 110.75C272.888 113.35 272.188 115.35 270.788 116.75C269.488 118.15 267.538 118.85 264.938 118.85ZM251.138 194C250.838 194 250.688 193.7 250.688 193.1C250.688 192.5 250.838 192.2 251.138 192.2C254.538 192.2 256.788 191.5 257.888 190.1C258.988 188.7 259.538 185.95 259.538 181.85V154.55C259.538 151.15 259.188 148.7 258.488 147.2C257.788 145.6 256.588 144.8 254.888 144.8C253.388 144.8 251.438 145.4 249.038 146.6H248.888C248.488 146.6 248.188 146.35 247.988 145.85C247.788 145.35 247.838 145 248.138 144.8L269.738 134.75L270.188 134.6C270.588 134.6 270.988 134.85 271.388 135.35C271.888 135.75 272.138 136.1 272.138 136.4V139.55C271.938 143.75 271.838 148.7 271.838 154.4V181.85C271.838 185.95 272.388 188.7 273.488 190.1C274.688 191.5 276.988 192.2 280.388 192.2C280.688 192.2 280.838 192.5 280.838 193.1C280.838 193.7 280.688 194 280.388 194C277.888 194 275.888 193.95 274.388 193.85L265.688 193.7L256.988 193.85C255.588 193.95 253.638 194 251.138 194Z"/>
<path d="M244.623 192.2C244.923 192.2 245.073 192.5 245.073 193.1C245.073 193.7 244.923 194 244.623 194C242.123 194 240.173 193.95 238.773 193.85L230.073 193.7L221.523 193.85C220.023 193.95 218.023 194 215.523 194C215.223 194 215.073 193.7 215.073 193.1C215.073 192.5 215.223 192.2 215.523 192.2C218.923 192.2 221.173 191.5 222.273 190.1C223.373 188.7 223.923 185.95 223.923 181.85V159.35C223.923 153.75 222.873 149.65 220.773 147.05C218.773 144.35 215.573 143 211.173 143C208.573 143 205.923 143.6 203.223 144.8C200.523 146 198.073 147.6 195.873 149.6V181.85C195.873 185.95 196.423 188.7 197.523 190.1C198.623 191.5 200.873 192.2 204.273 192.2C204.573 192.2 204.723 192.5 204.723 193.1C204.723 193.7 204.573 194 204.273 194C201.773 194 199.823 193.95 198.423 193.85L189.723 193.7L181.023 193.85C179.623 193.95 177.673 194 175.173 194C174.873 194 174.723 193.7 174.723 193.1C174.723 192.5 174.873 192.2 175.173 192.2C178.573 192.2 180.823 191.5 181.923 190.1C183.023 188.7 183.573 185.95 183.573 181.85V153.2C183.573 150 183.173 147.65 182.373 146.15C181.673 144.65 180.473 143.9 178.773 143.9C177.273 143.9 174.773 144.65 171.273 146.15H171.123C170.723 146.15 170.423 145.9 170.223 145.4C170.023 144.9 170.073 144.6 170.373 144.5L190.023 134.9C190.623 134.7 190.973 134.6 191.073 134.6C192.073 134.6 193.073 135.75 194.073 138.05C195.173 140.25 195.773 143.15 195.873 146.75C202.873 138.45 210.473 134.3 218.673 134.3C224.173 134.3 228.473 136 231.573 139.4C234.673 142.7 236.223 147.2 236.223 152.9V181.85C236.223 185.95 236.773 188.7 237.873 190.1C238.973 191.5 241.223 192.2 244.623 192.2Z"/>
<path d="M150.329 118.85C147.729 118.85 145.679 118.15 144.179 116.75C142.779 115.35 142.079 113.35 142.079 110.75C142.079 108.25 142.779 106.35 144.179 105.05C145.679 103.65 147.729 102.95 150.329 102.95C152.829 102.95 154.779 103.65 156.179 105.05C157.579 106.35 158.279 108.25 158.279 110.75C158.279 113.35 157.579 115.35 156.179 116.75C154.879 118.15 152.929 118.85 150.329 118.85ZM136.529 194C136.229 194 136.079 193.7 136.079 193.1C136.079 192.5 136.229 192.2 136.529 192.2C139.929 192.2 142.179 191.5 143.279 190.1C144.379 188.7 144.929 185.95 144.929 181.85V154.55C144.929 151.15 144.579 148.7 143.879 147.2C143.179 145.6 141.979 144.8 140.279 144.8C138.779 144.8 136.829 145.4 134.429 146.6H134.279C133.879 146.6 133.579 146.35 133.379 145.85C133.179 145.35 133.229 145 133.529 144.8L155.129 134.75L155.579 134.6C155.979 134.6 156.379 134.85 156.779 135.35C157.279 135.75 157.529 136.1 157.529 136.4V139.55C157.329 143.75 157.229 148.7 157.229 154.4V181.85C157.229 185.95 157.779 188.7 158.879 190.1C160.079 191.5 162.379 192.2 165.779 192.2C166.079 192.2 166.229 192.5 166.229 193.1C166.229 193.7 166.079 194 165.779 194C163.279 194 161.279 193.95 159.779 193.85L151.079 193.7L142.379 193.85C140.979 193.95 139.029 194 136.529 194Z"/>
<path d="M118.225 134.6C120.525 134.6 122.725 135.35 124.825 136.85C126.925 138.35 127.975 140.15 127.975 142.25C127.975 144.15 127.375 145.7 126.175 146.9C125.075 148.1 123.525 148.7 121.525 148.7C120.225 148.7 119.125 148.45 118.225 147.95C117.425 147.35 116.575 146.55 115.675 145.55C114.775 144.65 113.975 144 113.275 143.6C112.575 143.1 111.725 142.85 110.725 142.85C109.625 142.85 108.425 143.3 107.125 144.2C105.925 145 104.025 146.75 101.425 149.45V181.85C101.425 184.65 101.825 186.8 102.625 188.3C103.425 189.7 104.775 190.7 106.675 191.3C108.575 191.9 111.375 192.2 115.075 192.2C115.475 192.2 115.675 192.5 115.675 193.1C115.675 193.7 115.475 194 115.075 194C111.775 194 109.125 193.95 107.125 193.85L95.2753 193.7L86.5753 193.85C85.1753 193.95 83.2253 194 80.7253 194C80.4253 194 80.2753 193.7 80.2753 193.1C80.2753 192.5 80.4253 192.2 80.7253 192.2C84.1253 192.2 86.3753 191.5 87.4753 190.1C88.5753 188.7 89.1253 185.95 89.1253 181.85V153.2C89.1253 150 88.7253 147.65 87.9253 146.15C87.2253 144.65 86.0253 143.9 84.3253 143.9C82.8253 143.9 80.3253 144.65 76.8253 146.15H76.6753C76.2753 146.15 75.9753 145.9 75.7753 145.4C75.5753 144.9 75.6253 144.6 75.9253 144.5L95.5753 134.9C96.1753 134.7 96.5253 134.6 96.6253 134.6C97.6253 134.6 98.6253 135.7 99.6253 137.9C100.625 140 101.225 142.8 101.425 146.3C105.325 141.9 108.575 138.85 111.175 137.15C113.775 135.45 116.125 134.6 118.225 134.6Z"/>
<path d="M26.778 103.4C20.678 103.4 15.628 105.3 11.628 109.1C7.72803 112.8 4.72803 118.45 2.62803 126.05C2.62803 126.25 2.32803 126.35 1.72803 126.35C1.22803 126.35 0.978027 126.2 0.978027 125.9C1.37803 122 1.82803 117 2.32803 110.9C2.82803 104.7 3.07803 100.05 3.07803 96.95C3.07803 96.45 3.32803 96.2 3.82803 96.2C4.42803 96.2 4.72803 96.45 4.72803 96.95C4.72803 99.15 7.52803 100.25 13.128 100.25C21.728 100.55 31.778 100.7 43.278 100.7C49.178 100.7 55.428 100.6 62.028 100.4L72.228 100.25C76.028 100.25 78.778 100 80.478 99.5C82.278 99 83.428 98 83.928 96.5C84.028 96.1 84.328 95.9 84.828 95.9C85.328 95.9 85.578 96.1 85.578 96.5C85.278 99.6 84.978 104.3 84.678 110.6C84.378 116.9 84.228 122 84.228 125.9C84.228 126.2 83.928 126.35 83.328 126.35C82.828 126.35 82.528 126.2 82.428 125.9C81.428 118.2 79.078 112.55 75.378 108.95C71.678 105.25 66.678 103.4 60.378 103.4C57.578 103.4 55.478 103.65 54.078 104.15C52.778 104.65 51.878 105.55 51.378 106.85C50.978 108.05 50.778 110 50.778 112.7V181.85C50.778 184.95 51.078 187.2 51.678 188.6C52.278 190 53.478 190.95 55.278 191.45C57.078 191.95 59.928 192.2 63.828 192.2C64.128 192.2 64.278 192.5 64.278 193.1C64.278 193.7 64.128 194 63.828 194C60.328 194 57.578 193.95 55.578 193.85L43.278 193.7L31.578 193.85C29.478 193.95 26.578 194 22.878 194C22.678 194 22.578 193.7 22.578 193.1C22.578 192.5 22.678 192.2 22.878 192.2C26.778 192.2 29.628 191.95 31.428 191.45C33.328 190.95 34.578 190 35.178 188.6C35.878 187.1 36.228 184.85 36.228 181.85V112.4C36.228 109.8 35.978 107.9 35.478 106.7C34.978 105.5 34.078 104.65 32.778 104.15C31.478 103.65 29.478 103.4 26.778 103.4Z"/>
<path d="M19 48L3 96L147 48L163 0L19 48Z"/>
</svg>